<mxfile host="app.diagrams.net" agent="Mozilla/5.0 (Windows NT 10.0; Win64; x64) AppleWebKit/537.36 (KHTML, like Gecko) Chrome/131.0.0.0 Safari/537.36" version="25.0.1">
  <diagram name="AWS - Eficiência de Performance - WAF" id="BBM7HmE_G74GKGTS61Dw">
    <mxGraphModel grid="1" page="0" gridSize="10" guides="1" tooltips="1" connect="1" arrows="1" fold="1" pageScale="1" pageWidth="827" pageHeight="1169" math="0" shadow="0">
      <root>
        <mxCell id="0" />
        <mxCell id="1" parent="0" />
        <mxCell id="ofPMTWtSP_iq6lM-ZGT5-7" value="AWS - Eficiência de Performance - Well-Architected Framework" style="points=[[0,0],[0.25,0],[0.5,0],[0.75,0],[1,0],[1,0.25],[1,0.5],[1,0.75],[1,1],[0.75,1],[0.5,1],[0.25,1],[0,1],[0,0.75],[0,0.5],[0,0.25]];outlineConnect=0;gradientColor=none;html=1;whiteSpace=wrap;fontSize=12;fontStyle=0;container=0;pointerEvents=0;collapsible=0;recursiveResize=0;shape=mxgraph.aws4.group;grIcon=mxgraph.aws4.group_account;strokeColor=#CD2264;fillColor=none;verticalAlign=top;align=left;spacingLeft=30;fontColor=#CD2264;dashed=0;" vertex="1" parent="1">
          <mxGeometry x="2960" y="106" width="907" height="586" as="geometry" />
        </mxCell>
        <mxCell id="PWoz4rSzEnmUFNBiS0Xm-3" value="&lt;b&gt;Usuários&lt;/b&gt;" style="sketch=0;pointerEvents=1;shadow=0;dashed=0;html=1;strokeColor=none;labelPosition=center;verticalLabelPosition=bottom;verticalAlign=top;outlineConnect=0;align=center;shape=mxgraph.office.users.users;fillColor=#A680B8;" vertex="1" parent="1">
          <mxGeometry x="2800" y="376.25" width="70" height="70" as="geometry" />
        </mxCell>
        <mxCell id="ofPMTWtSP_iq6lM-ZGT5-13" value="Região São Paulo (sa-east-1)" style="points=[[0,0],[0.25,0],[0.5,0],[0.75,0],[1,0],[1,0.25],[1,0.5],[1,0.75],[1,1],[0.75,1],[0.5,1],[0.25,1],[0,1],[0,0.75],[0,0.5],[0,0.25]];outlineConnect=0;gradientColor=none;html=1;whiteSpace=wrap;fontSize=12;fontStyle=0;container=1;pointerEvents=0;collapsible=0;recursiveResize=0;shape=mxgraph.aws4.group;grIcon=mxgraph.aws4.group_region;strokeColor=#00A4A6;fillColor=default;verticalAlign=top;align=left;spacingLeft=30;fontColor=#147EBA;dashed=1;" vertex="1" parent="1">
          <mxGeometry x="3059" y="135" width="786" height="541" as="geometry" />
        </mxCell>
        <mxCell id="ofPMTWtSP_iq6lM-ZGT5-60" value="&lt;font color=&quot;#6666ff&quot;&gt;VPC 10.0.0.0/16&lt;/font&gt;" style="points=[[0,0],[0.25,0],[0.5,0],[0.75,0],[1,0],[1,0.25],[1,0.5],[1,0.75],[1,1],[0.75,1],[0.5,1],[0.25,1],[0,1],[0,0.75],[0,0.5],[0,0.25]];outlineConnect=0;gradientColor=none;html=1;whiteSpace=wrap;fontSize=12;fontStyle=0;container=1;pointerEvents=0;collapsible=0;recursiveResize=0;shape=mxgraph.aws4.group;grIcon=mxgraph.aws4.group_vpc2;strokeColor=#8C4FFF;fillColor=none;verticalAlign=top;align=left;spacingLeft=30;fontColor=#AAB7B8;dashed=0;" vertex="1" parent="ofPMTWtSP_iq6lM-ZGT5-13">
          <mxGeometry x="15" y="29" width="761" height="502" as="geometry" />
        </mxCell>
        <mxCell id="ofPMTWtSP_iq6lM-ZGT5-77" value="&amp;nbsp; AZ-A" style="sketch=0;outlineConnect=0;gradientColor=none;html=1;whiteSpace=wrap;fontSize=12;fontStyle=0;shape=mxgraph.aws4.group;grIcon=mxgraph.aws4.group_availability_zone;strokeColor=#545B64;fillColor=none;verticalAlign=top;align=left;spacingLeft=30;fontColor=#545B64;dashed=1;" vertex="1" parent="ofPMTWtSP_iq6lM-ZGT5-60">
          <mxGeometry x="112" y="31" width="410" height="183.5" as="geometry" />
        </mxCell>
        <mxCell id="-B5-qUnQaAAd_g6bkRrS-15" value="Sub-rede pública" style="points=[[0,0],[0.25,0],[0.5,0],[0.75,0],[1,0],[1,0.25],[1,0.5],[1,0.75],[1,1],[0.75,1],[0.5,1],[0.25,1],[0,1],[0,0.75],[0,0.5],[0,0.25]];outlineConnect=0;gradientColor=none;html=1;whiteSpace=wrap;fontSize=12;fontStyle=0;container=1;pointerEvents=0;collapsible=0;recursiveResize=0;shape=mxgraph.aws4.group;grIcon=mxgraph.aws4.group_security_group;grStroke=0;strokeColor=#7AA116;fillColor=#F2F6E8;verticalAlign=top;align=left;spacingLeft=30;fontColor=#248814;dashed=0;" vertex="1" parent="ofPMTWtSP_iq6lM-ZGT5-60">
          <mxGeometry x="155" y="61.5" width="343" height="146.5" as="geometry" />
        </mxCell>
        <mxCell id="-B5-qUnQaAAd_g6bkRrS-103" value="" style="rounded=1;arcSize=10;dashed=1;fillColor=none;gradientColor=none;strokeWidth=2;sketch=0;strokeColor=#000000;align=center;verticalAlign=top;fontFamily=Helvetica;fontSize=12;fontColor=#232F3E;fontStyle=0;" vertex="1" parent="-B5-qUnQaAAd_g6bkRrS-15">
          <mxGeometry x="12" y="29.5" width="286" height="379.5" as="geometry" />
        </mxCell>
        <mxCell id="PUh4blU8CVewkGXMNKse-3" value="" style="edgeStyle=orthogonalEdgeStyle;rounded=0;orthogonalLoop=1;jettySize=auto;html=1;fontFamily=Helvetica;fontSize=12;fontColor=#232F3E;fontStyle=0;flowAnimation=1;" edge="1" parent="-B5-qUnQaAAd_g6bkRrS-15" source="ofPMTWtSP_iq6lM-ZGT5-69" target="PWoz4rSzEnmUFNBiS0Xm-7">
          <mxGeometry relative="1" as="geometry" />
        </mxCell>
        <mxCell id="ofPMTWtSP_iq6lM-ZGT5-69" value="Servidor de web" style="sketch=0;points=[[0,0,0],[0.25,0,0],[0.5,0,0],[0.75,0,0],[1,0,0],[0,1,0],[0.25,1,0],[0.5,1,0],[0.75,1,0],[1,1,0],[0,0.25,0],[0,0.5,0],[0,0.75,0],[1,0.25,0],[1,0.5,0],[1,0.75,0]];outlineConnect=0;fontColor=#232F3E;fillColor=#ED7100;strokeColor=#ffffff;dashed=0;verticalLabelPosition=bottom;verticalAlign=top;align=center;html=1;fontSize=12;fontStyle=0;aspect=fixed;shape=mxgraph.aws4.resourceIcon;resIcon=mxgraph.aws4.ec2;" vertex="1" parent="-B5-qUnQaAAd_g6bkRrS-15">
          <mxGeometry x="38" y="45.75" width="60" height="60" as="geometry" />
        </mxCell>
        <mxCell id="PWoz4rSzEnmUFNBiS0Xm-7" value="Servidor de aplicativo&lt;br&gt;(Público)" style="sketch=0;points=[[0,0,0],[0.25,0,0],[0.5,0,0],[0.75,0,0],[1,0,0],[0,1,0],[0.25,1,0],[0.5,1,0],[0.75,1,0],[1,1,0],[0,0.25,0],[0,0.5,0],[0,0.75,0],[1,0.25,0],[1,0.5,0],[1,0.75,0]];outlineConnect=0;fontColor=#232F3E;fillColor=#ED7100;strokeColor=#ffffff;dashed=0;verticalLabelPosition=bottom;verticalAlign=top;align=center;html=1;fontSize=12;fontStyle=0;aspect=fixed;shape=mxgraph.aws4.resourceIcon;resIcon=mxgraph.aws4.ec2;" vertex="1" parent="-B5-qUnQaAAd_g6bkRrS-15">
          <mxGeometry x="197" y="43.25" width="60" height="60" as="geometry" />
        </mxCell>
        <mxCell id="-B5-qUnQaAAd_g6bkRrS-147" value="" style="edgeStyle=orthogonalEdgeStyle;rounded=0;orthogonalLoop=1;jettySize=auto;html=1;fontFamily=Helvetica;fontSize=12;fontColor=#232F3E;fontStyle=0;flowAnimation=1;entryX=0;entryY=0.75;entryDx=0;entryDy=0;entryPerimeter=0;" edge="1" parent="-B5-qUnQaAAd_g6bkRrS-15" target="PUh4blU8CVewkGXMNKse-21">
          <mxGeometry relative="1" as="geometry">
            <mxPoint x="447" y="52.576923076923094" as="targetPoint" />
            <mxPoint x="221" y="90.5" as="sourcePoint" />
            <Array as="points">
              <mxPoint x="221" y="204" />
              <mxPoint x="381" y="204" />
              <mxPoint x="381" y="59" />
            </Array>
          </mxGeometry>
        </mxCell>
        <mxCell id="-B5-qUnQaAAd_g6bkRrS-10" value="&amp;nbsp; AZ-B" style="sketch=0;outlineConnect=0;gradientColor=none;html=1;whiteSpace=wrap;fontSize=12;fontStyle=0;shape=mxgraph.aws4.group;grIcon=mxgraph.aws4.group_availability_zone;strokeColor=#545B64;fillColor=none;verticalAlign=top;align=left;spacingLeft=30;fontColor=#545B64;dashed=1;" vertex="1" parent="ofPMTWtSP_iq6lM-ZGT5-60">
          <mxGeometry x="113" y="303" width="407" height="189" as="geometry" />
        </mxCell>
        <mxCell id="-B5-qUnQaAAd_g6bkRrS-72" value="&lt;font color=&quot;#000000&quot;&gt;Sub-rede pública&lt;/font&gt;" style="points=[[0,0],[0.25,0],[0.5,0],[0.75,0],[1,0],[1,0.25],[1,0.5],[1,0.75],[1,1],[0.75,1],[0.5,1],[0.25,1],[0,1],[0,0.75],[0,0.5],[0,0.25]];outlineConnect=0;html=1;whiteSpace=wrap;fontSize=12;fontStyle=0;container=1;pointerEvents=0;collapsible=0;recursiveResize=0;shape=mxgraph.aws4.group;grIcon=mxgraph.aws4.group_security_group;grStroke=0;strokeColor=#005700;fillColor=#008a00;verticalAlign=top;align=left;spacingLeft=30;fontColor=#ffffff;dashed=0;opacity=20;" vertex="1" parent="ofPMTWtSP_iq6lM-ZGT5-60">
          <mxGeometry x="149" y="327" width="355" height="150" as="geometry" />
        </mxCell>
        <mxCell id="-B5-qUnQaAAd_g6bkRrS-73" value="Servidor de web" style="sketch=0;points=[[0,0,0],[0.25,0,0],[0.5,0,0],[0.75,0,0],[1,0,0],[0,1,0],[0.25,1,0],[0.5,1,0],[0.75,1,0],[1,1,0],[0,0.25,0],[0,0.5,0],[0,0.75,0],[1,0.25,0],[1,0.5,0],[1,0.75,0]];outlineConnect=0;fontColor=#232F3E;fillColor=#ED7100;strokeColor=#ffffff;dashed=0;verticalLabelPosition=bottom;verticalAlign=top;align=center;html=1;fontSize=12;fontStyle=0;aspect=fixed;shape=mxgraph.aws4.resourceIcon;resIcon=mxgraph.aws4.ec2;" vertex="1" parent="-B5-qUnQaAAd_g6bkRrS-72">
          <mxGeometry x="49" y="43.75" width="60" height="60" as="geometry" />
        </mxCell>
        <mxCell id="-B5-qUnQaAAd_g6bkRrS-91" value="Auto Scaling&lt;br&gt;(Grupo)" style="outlineConnect=0;dashed=0;verticalLabelPosition=bottom;verticalAlign=top;align=center;html=1;shape=mxgraph.aws3.auto_scaling;fillColor=#F58534;gradientColor=none;sketch=0;strokeColor=#ffffff;fontFamily=Helvetica;fontSize=12;fontColor=#232F3E;fontStyle=0;" vertex="1" parent="ofPMTWtSP_iq6lM-ZGT5-60">
          <mxGeometry x="277" y="218" width="55" height="45" as="geometry" />
        </mxCell>
        <mxCell id="-B5-qUnQaAAd_g6bkRrS-118" value="Applicantion Load&amp;nbsp;&lt;div&gt;Balancer&lt;/div&gt;" style="sketch=0;outlineConnect=0;fontColor=#232F3E;gradientColor=none;fillColor=#8C4FFF;strokeColor=none;dashed=0;verticalLabelPosition=bottom;verticalAlign=top;align=center;html=1;fontSize=12;fontStyle=0;aspect=fixed;pointerEvents=1;shape=mxgraph.aws4.application_load_balancer;fontFamily=Helvetica;" vertex="1" parent="ofPMTWtSP_iq6lM-ZGT5-60">
          <mxGeometry x="47" y="216.5" width="53.5" height="53.5" as="geometry" />
        </mxCell>
        <mxCell id="PUh4blU8CVewkGXMNKse-2" value="" style="edgeStyle=orthogonalEdgeStyle;rounded=0;orthogonalLoop=1;jettySize=auto;html=1;flowAnimation=1;entryX=-0.007;entryY=0.416;entryDx=0;entryDy=0;entryPerimeter=0;" edge="1" parent="ofPMTWtSP_iq6lM-ZGT5-60" target="-B5-qUnQaAAd_g6bkRrS-103">
          <mxGeometry x="-0.3991" relative="1" as="geometry">
            <mxPoint x="1" as="offset" />
            <mxPoint x="100" y="248" as="sourcePoint" />
            <mxPoint x="121" y="248" as="targetPoint" />
            <Array as="points" />
          </mxGeometry>
        </mxCell>
        <mxCell id="PUh4blU8CVewkGXMNKse-4" value="Sub-rede Privada" style="points=[[0,0],[0.25,0],[0.5,0],[0.75,0],[1,0],[1,0.25],[1,0.5],[1,0.75],[1,1],[0.75,1],[0.5,1],[0.25,1],[0,1],[0,0.75],[0,0.5],[0,0.25]];outlineConnect=0;gradientColor=none;html=1;whiteSpace=wrap;fontSize=12;fontStyle=0;container=1;pointerEvents=0;collapsible=0;recursiveResize=0;shape=mxgraph.aws4.group;grIcon=mxgraph.aws4.group_security_group;grStroke=0;strokeColor=#00A4A6;fillColor=#E6F6F7;verticalAlign=top;align=left;spacingLeft=30;fontColor=#147EBA;dashed=0;sketch=0;fontFamily=Helvetica;" vertex="1" parent="ofPMTWtSP_iq6lM-ZGT5-60">
          <mxGeometry x="547" y="33" width="198" height="460" as="geometry" />
        </mxCell>
        <mxCell id="PUh4blU8CVewkGXMNKse-5" value="" style="edgeStyle=orthogonalEdgeStyle;rounded=0;orthogonalLoop=1;jettySize=auto;html=1;fontFamily=Helvetica;fontSize=12;fontColor=#232F3E;fontStyle=0;flowAnimation=1;" edge="1" parent="PUh4blU8CVewkGXMNKse-4" source="-B5-qUnQaAAd_g6bkRrS-22" target="-B5-qUnQaAAd_g6bkRrS-24">
          <mxGeometry relative="1" as="geometry" />
        </mxCell>
        <mxCell id="-B5-qUnQaAAd_g6bkRrS-24" value="RDS (Multi-AZ)" style="sketch=0;points=[[0,0,0],[0.25,0,0],[0.5,0,0],[0.75,0,0],[1,0,0],[0,1,0],[0.25,1,0],[0.5,1,0],[0.75,1,0],[1,1,0],[0,0.25,0],[0,0.5,0],[0,0.75,0],[1,0.25,0],[1,0.5,0],[1,0.75,0]];outlineConnect=0;fontColor=#232F3E;fillColor=#C925D1;strokeColor=#ffffff;dashed=0;verticalLabelPosition=bottom;verticalAlign=top;align=center;html=1;fontSize=12;fontStyle=0;aspect=fixed;shape=mxgraph.aws4.resourceIcon;resIcon=mxgraph.aws4.rds;" vertex="1" parent="PUh4blU8CVewkGXMNKse-4">
          <mxGeometry x="62" y="245" width="78" height="78" as="geometry" />
        </mxCell>
        <mxCell id="-B5-qUnQaAAd_g6bkRrS-22" value="ElastiCache&lt;div&gt;&amp;nbsp;(Redis)&lt;/div&gt;" style="sketch=0;outlineConnect=0;fontColor=#232F3E;gradientColor=none;fillColor=#C925D1;strokeColor=none;dashed=0;verticalLabelPosition=bottom;verticalAlign=top;align=center;html=1;fontSize=12;fontStyle=0;aspect=fixed;pointerEvents=1;shape=mxgraph.aws4.elasticache_for_redis;" vertex="1" parent="PUh4blU8CVewkGXMNKse-4">
          <mxGeometry x="72.14999999999998" y="373" width="53.7" height="47.5" as="geometry" />
        </mxCell>
        <mxCell id="-B5-qUnQaAAd_g6bkRrS-86" value="Auto Scaling&lt;br&gt;(Application Servers)" style="outlineConnect=0;dashed=0;verticalLabelPosition=bottom;verticalAlign=top;align=center;html=1;shape=mxgraph.aws3.auto_scaling;fillColor=#F58534;gradientColor=none;sketch=0;strokeColor=#ffffff;fontFamily=Helvetica;fontSize=12;fontColor=#232F3E;fontStyle=0;" vertex="1" parent="PUh4blU8CVewkGXMNKse-4">
          <mxGeometry x="74.99999999999997" y="146" width="48" height="39" as="geometry" />
        </mxCell>
        <mxCell id="-B5-qUnQaAAd_g6bkRrS-135" style="edgeStyle=orthogonalEdgeStyle;rounded=0;orthogonalLoop=1;jettySize=auto;html=1;exitX=0.5;exitY=1;exitDx=0;exitDy=0;exitPerimeter=0;entryX=1;entryY=1;entryDx=0;entryDy=0;entryPerimeter=0;fontFamily=Helvetica;fontSize=12;fontColor=#232F3E;fontStyle=0;flowAnimation=1;" edge="1" parent="PUh4blU8CVewkGXMNKse-4" source="-B5-qUnQaAAd_g6bkRrS-24" target="-B5-qUnQaAAd_g6bkRrS-24">
          <mxGeometry relative="1" as="geometry" />
        </mxCell>
        <mxCell id="PUh4blU8CVewkGXMNKse-21" value="Servidor de Aplicação&lt;div&gt;&amp;nbsp;(Privado)&lt;/div&gt;" style="sketch=0;points=[[0,0,0],[0.25,0,0],[0.5,0,0],[0.75,0,0],[1,0,0],[0,1,0],[0.25,1,0],[0.5,1,0],[0.75,1,0],[1,1,0],[0,0.25,0],[0,0.5,0],[0,0.75,0],[1,0.25,0],[1,0.5,0],[1,0.75,0]];outlineConnect=0;fontColor=#232F3E;fillColor=#ED7100;strokeColor=#ffffff;dashed=0;verticalLabelPosition=bottom;verticalAlign=top;align=center;html=1;fontSize=12;fontStyle=0;aspect=fixed;shape=mxgraph.aws4.resourceIcon;resIcon=mxgraph.aws4.ec2;" vertex="1" parent="PUh4blU8CVewkGXMNKse-4">
          <mxGeometry x="69" y="42" width="60" height="60" as="geometry" />
        </mxCell>
        <mxCell id="PUh4blU8CVewkGXMNKse-26" value="" style="edgeStyle=orthogonalEdgeStyle;rounded=0;orthogonalLoop=1;jettySize=auto;html=1;fontFamily=Helvetica;fontSize=12;fontColor=#232F3E;fontStyle=0;flowAnimation=1;" edge="1" parent="PUh4blU8CVewkGXMNKse-4" source="PUh4blU8CVewkGXMNKse-21" target="-B5-qUnQaAAd_g6bkRrS-86">
          <mxGeometry relative="1" as="geometry">
            <mxPoint x="150" y="294" as="targetPoint" />
            <Array as="points">
              <mxPoint x="99" y="30" />
              <mxPoint x="173" y="30" />
              <mxPoint x="173" y="165" />
            </Array>
            <mxPoint x="-737" y="-38" as="sourcePoint" />
          </mxGeometry>
        </mxCell>
        <mxCell id="PUh4blU8CVewkGXMNKse-27" value="" style="edgeStyle=orthogonalEdgeStyle;rounded=0;orthogonalLoop=1;jettySize=auto;html=1;fontFamily=Helvetica;fontSize=12;fontColor=#232F3E;fontStyle=0;flowAnimation=1;" edge="1" parent="PUh4blU8CVewkGXMNKse-4" source="-B5-qUnQaAAd_g6bkRrS-86" target="-B5-qUnQaAAd_g6bkRrS-22">
          <mxGeometry relative="1" as="geometry">
            <mxPoint x="133" y="175" as="targetPoint" />
            <Array as="points">
              <mxPoint x="22" y="165" />
              <mxPoint x="22" y="399" />
            </Array>
            <mxPoint x="109" y="52" as="sourcePoint" />
          </mxGeometry>
        </mxCell>
        <mxCell id="PUh4blU8CVewkGXMNKse-33" value="" style="edgeStyle=orthogonalEdgeStyle;rounded=0;orthogonalLoop=1;jettySize=auto;html=1;fontFamily=Helvetica;fontSize=12;fontColor=#232F3E;fontStyle=0;flowAnimation=1;exitX=0.75;exitY=0;exitDx=0;exitDy=0;exitPerimeter=0;entryX=0;entryY=0.75;entryDx=0;entryDy=0;entryPerimeter=0;" edge="1" parent="ofPMTWtSP_iq6lM-ZGT5-60" target="PUh4blU8CVewkGXMNKse-21">
          <mxGeometry relative="1" as="geometry">
            <mxPoint x="611" y="121" as="targetPoint" />
            <mxPoint x="376" y="365.75" as="sourcePoint" />
            <Array as="points">
              <mxPoint x="376" y="266" />
              <mxPoint x="536" y="266" />
              <mxPoint x="536" y="121" />
              <mxPoint x="616" y="121" />
            </Array>
          </mxGeometry>
        </mxCell>
        <mxCell id="-B5-qUnQaAAd_g6bkRrS-74" value="Servidor de aplicativo&lt;br&gt;(Público)" style="sketch=0;points=[[0,0,0],[0.25,0,0],[0.5,0,0],[0.75,0,0],[1,0,0],[0,1,0],[0.25,1,0],[0.5,1,0],[0.75,1,0],[1,1,0],[0,0.25,0],[0,0.5,0],[0,0.75,0],[1,0.25,0],[1,0.5,0],[1,0.75,0]];outlineConnect=0;fontColor=#232F3E;fillColor=#ED7100;strokeColor=#ffffff;dashed=0;verticalLabelPosition=bottom;verticalAlign=top;align=center;html=1;fontSize=12;fontStyle=0;aspect=fixed;shape=mxgraph.aws4.resourceIcon;resIcon=mxgraph.aws4.ec2;" vertex="1" parent="ofPMTWtSP_iq6lM-ZGT5-60">
          <mxGeometry x="350.5" y="370.75" width="60" height="60" as="geometry" />
        </mxCell>
        <mxCell id="-B5-qUnQaAAd_g6bkRrS-124" value="" style="edgeStyle=orthogonalEdgeStyle;rounded=0;orthogonalLoop=1;jettySize=auto;html=1;fontFamily=Helvetica;fontSize=12;fontColor=#232F3E;fontStyle=0;flowAnimation=1;" edge="1" parent="ofPMTWtSP_iq6lM-ZGT5-60" source="-B5-qUnQaAAd_g6bkRrS-73" target="-B5-qUnQaAAd_g6bkRrS-74">
          <mxGeometry relative="1" as="geometry" />
        </mxCell>
        <mxCell id="-B5-qUnQaAAd_g6bkRrS-115" value="" style="edgeStyle=orthogonalEdgeStyle;rounded=0;orthogonalLoop=1;jettySize=auto;html=1;fontFamily=Helvetica;fontSize=12;fontColor=#232F3E;fontStyle=0;flowAnimation=1;" edge="1" parent="1">
          <mxGeometry relative="1" as="geometry">
            <mxPoint x="3121" y="410" as="targetPoint" />
            <Array as="points">
              <mxPoint x="3080" y="410" />
              <mxPoint x="3080" y="410" />
            </Array>
            <mxPoint x="3050" y="410" as="sourcePoint" />
          </mxGeometry>
        </mxCell>
        <mxCell id="-B5-qUnQaAAd_g6bkRrS-1" value="CloudFront" style="outlineConnect=0;dashed=0;verticalLabelPosition=bottom;verticalAlign=top;align=center;html=1;shape=mxgraph.aws3.cloudfront;fillColor=#F58536;gradientColor=none;" vertex="1" parent="1">
          <mxGeometry x="2985" y="374" width="59" height="75" as="geometry" />
        </mxCell>
        <mxCell id="-B5-qUnQaAAd_g6bkRrS-26" value="CloudW&lt;span style=&quot;background-color: initial;&quot;&gt;atch&lt;/span&gt;" style="sketch=0;points=[[0,0,0],[0.25,0,0],[0.5,0,0],[0.75,0,0],[1,0,0],[0,1,0],[0.25,1,0],[0.5,1,0],[0.75,1,0],[1,1,0],[0,0.25,0],[0,0.5,0],[0,0.75,0],[1,0.25,0],[1,0.5,0],[1,0.75,0]];points=[[0,0,0],[0.25,0,0],[0.5,0,0],[0.75,0,0],[1,0,0],[0,1,0],[0.25,1,0],[0.5,1,0],[0.75,1,0],[1,1,0],[0,0.25,0],[0,0.5,0],[0,0.75,0],[1,0.25,0],[1,0.5,0],[1,0.75,0]];outlineConnect=0;fontColor=#232F3E;fillColor=#E7157B;strokeColor=#ffffff;dashed=0;verticalLabelPosition=bottom;verticalAlign=top;align=center;html=1;fontSize=12;fontStyle=0;aspect=fixed;shape=mxgraph.aws4.resourceIcon;resIcon=mxgraph.aws4.cloudwatch_2;" vertex="1" parent="1">
          <mxGeometry x="2982" y="248" width="55" height="55" as="geometry" />
        </mxCell>
        <mxCell id="-B5-qUnQaAAd_g6bkRrS-141" value="" style="edgeStyle=orthogonalEdgeStyle;rounded=0;orthogonalLoop=1;jettySize=auto;html=1;fontFamily=Helvetica;fontSize=12;fontColor=#232F3E;fontStyle=0;flowAnimation=1;" edge="1" parent="1" source="-B5-qUnQaAAd_g6bkRrS-26" target="ofPMTWtSP_iq6lM-ZGT5-60">
          <mxGeometry relative="1" as="geometry">
            <mxPoint x="3309" y="390.5" as="targetPoint" />
            <Array as="points">
              <mxPoint x="3009" y="323" />
            </Array>
          </mxGeometry>
        </mxCell>
        <mxCell id="-B5-qUnQaAAd_g6bkRrS-28" value="CloudTrail" style="outlineConnect=0;dashed=0;verticalLabelPosition=bottom;verticalAlign=top;align=center;html=1;shape=mxgraph.aws3.cloudtrail;fillColor=#759C3E;gradientColor=none;" vertex="1" parent="1">
          <mxGeometry x="2985" y="147" width="51" height="71" as="geometry" />
        </mxCell>
        <mxCell id="-B5-qUnQaAAd_g6bkRrS-139" value="" style="edgeStyle=orthogonalEdgeStyle;rounded=0;orthogonalLoop=1;jettySize=auto;html=1;fontFamily=Helvetica;fontSize=12;fontColor=#232F3E;fontStyle=0;flowAnimation=1;" edge="1" parent="1">
          <mxGeometry relative="1" as="geometry">
            <mxPoint x="3761" y="478" as="targetPoint" />
            <Array as="points">
              <mxPoint x="3813" y="189" />
              <mxPoint x="3813" y="478" />
            </Array>
            <mxPoint x="3036" y="189.07692307692298" as="sourcePoint" />
          </mxGeometry>
        </mxCell>
        <mxCell id="-B5-qUnQaAAd_g6bkRrS-113" value="&lt;meta charset=&quot;utf-8&quot;&gt;&lt;span style=&quot;color: rgb(0, 0, 0); font-family: Helvetica; font-size: 11px; font-style: normal; font-variant-ligatures: normal; font-variant-caps: normal; font-weight: 400; letter-spacing: normal; orphans: 2; text-align: center; text-indent: 0px; text-transform: none; widows: 2; word-spacing: 0px; -webkit-text-stroke-width: 0px; white-space: nowrap; background-color: rgb(255, 255, 255); text-decoration-thickness: initial; text-decoration-style: initial; text-decoration-color: initial; display: inline !important; float: none;&quot;&gt;54.128.34.12&lt;/span&gt;" style="edgeStyle=orthogonalEdgeStyle;rounded=0;orthogonalLoop=1;jettySize=auto;html=1;flowAnimation=1;entryX=0;entryY=0.5;entryDx=0;entryDy=0;entryPerimeter=0;" edge="1" parent="1" target="-B5-qUnQaAAd_g6bkRrS-1" source="PWoz4rSzEnmUFNBiS0Xm-3">
          <mxGeometry x="-0.1323" relative="1" as="geometry">
            <mxPoint as="offset" />
            <mxPoint x="2894" y="472.67" as="sourcePoint" />
            <mxPoint x="3316.676" y="466.01215999999994" as="targetPoint" />
            <Array as="points" />
          </mxGeometry>
        </mxCell>
      </root>
    </mxGraphModel>
  </diagram>
</mxfile>
